<?xml version="1.0" encoding="UTF-8"?>
<svg id="_レイヤー_1" data-name="レイヤー_1" xmlns="http://www.w3.org/2000/svg" version="1.1" viewBox="0 0 102.33 70.57">
  <!-- Generator: Adobe Illustrator 30.1.0, SVG Export Plug-In . SVG Version: 2.1.1 Build 136)  -->
  <g>
    <g>
      <path d="M101.43,70.57h-30.07c-.5,0-.9-.4-.9-.9V27.57c0-.5.4-.9.9-.9h30.07c.5,0,.9.4.9.9v42.1c0,.5-.4.9-.9.9ZM72.25,68.77h28.27V28.47h-28.27v40.3Z" fill="#3e3a39"/>
      <path d="M38.51,70.57h-12.57c-.5,0-.9-.4-.9-.9s.4-.9.9-.9h11.67v-5.28H.9c-.5,0-.9-.4-.9-.9V.9c0-.5.4-.9.9-.9h85.71c.5,0,.9.4.9.9v20.56c0,.5-.4.9-.9.9s-.9-.4-.9-.9V1.8H1.8v59.89h36.71c.5,0,.9.4.9.9v7.08c0,.5-.4.9-.9.9Z" fill="#3e3a39"/>
      <path d="M61.58,70.57h-12.74c-.5,0-.9-.4-.9-.9v-7.08c0-.5.4-.9.9-.9h16.47c.5,0,.9.4.9.9s-.4.9-.9.9h-15.57v5.28h11.84c.5,0,.9.4.9.9s-.4.9-.9.9Z" fill="#3e3a39"/>
    </g>
    <path d="M65.3,54.89H1.49c-.5,0-.9-.4-.9-.9s.4-.9.9-.9h63.81c.5,0,.9.4.9.9s-.4.9-.9.9Z" fill="#3e3a39"/>
  </g>
  <path d="M86.14,65.43c-1.06,0-1.92-.86-1.92-1.92s.86-1.92,1.92-1.92,1.92.86,1.92,1.92-.86,1.92-1.92,1.92Z" fill="#3e3a39"/>
</svg>